<svg width="24" height="25" viewBox="0 0 24 25" fill="none" xmlns="http://www.w3.org/2000/svg">
<g clipPath="url(#clip0_1474_14420)">
<path d="M24 12.9072C24 6.27981 18.6274 0.907227 12 0.907227C5.37258 0.907227 0 6.27981 0 12.9072C0 18.8967 4.3882 23.8612 10.125 24.7614V16.376H7.07812V12.9072H10.125V10.2635C10.125 7.25598 11.9166 5.59473 14.6576 5.59473C15.9701 5.59473 17.3438 5.8291 17.3438 5.8291V8.78223H15.8306C14.34 8.78223 13.875 9.7073 13.875 10.6572V12.9072H17.2031L16.6711 16.376H13.875V24.7614C19.6118 23.8612 24 18.8967 24 12.9072Z" fill="#1877F2"/>
<path d="M16.6711 16.376L17.2031 12.9072H13.875V10.6572C13.875 9.70824 14.34 8.78223 15.8306 8.78223H17.3438V5.8291C17.3438 5.8291 15.9705 5.59473 14.6576 5.59473C11.9166 5.59473 10.125 7.25598 10.125 10.2635V12.9072H7.07812V16.376H10.125V24.7614C11.3674 24.9558 12.6326 24.9558 13.875 24.7614V16.376H16.6711Z" fill="white"/>
</g>
<defs>
<clipPath id="clip0_1474_14420">
<rect width="24" height="24" fill="white" transform="translate(0 0.907227)"/>
</clipPath>
</defs>
</svg>
