<svg width="24" height="25" viewBox="0 0 24 25" fill="none" xmlns="http://www.w3.org/2000/svg">
<g clip-path="url(#clip0_1474_14413)">
<path d="M23.7663 13.1837C23.7663 12.368 23.7001 11.5479 23.559 10.7454H12.2402V15.3663H18.722C18.453 16.8567 17.5888 18.1751 16.3233 19.0129V22.0112H20.1903C22.4611 19.9212 23.7663 16.8347 23.7663 13.1837Z" fill="#4285F4"/>
<path d="M12.24 24.9081C15.4764 24.9081 18.2058 23.8454 20.1944 22.0111L16.3274 19.0128C15.2516 19.7447 13.8626 20.1592 12.2444 20.1592C9.11376 20.1592 6.45934 18.0471 5.50693 15.2075H1.51648V18.2985C3.55359 22.3506 7.70278 24.9081 12.24 24.9081Z" fill="#34A853"/>
<path d="M5.50277 15.2074C5.00011 13.7171 5.00011 12.1033 5.50277 10.6129V7.52197H1.51674C-0.185266 10.9127 -0.185266 14.9076 1.51674 18.2984L5.50277 15.2074Z" fill="#FBBC04"/>
<path d="M12.24 5.65689C13.9508 5.63043 15.6043 6.27419 16.8433 7.45589L20.2694 4.02984C18.1 1.99273 15.2207 0.872761 12.24 0.908035C7.70277 0.908035 3.55359 3.46545 1.51648 7.52203L5.50252 10.613C6.45052 7.76896 9.10935 5.65689 12.24 5.65689Z" fill="#EA4335"/>
</g>
<defs>
<clipPath id="clip0_1474_14413">
<rect width="24" height="24" fill="white" transform="translate(0 0.907227)"/>
</clipPath>
</defs>
</svg>
