<svg width="25" height="25" viewBox="0 0 25 25" fill="none" xmlns="http://www.w3.org/2000/svg">
<path d="M17.6762 9.57069C19.2196 10.6779 21.1102 11.3293 23.1523 11.3293V7.38584C22.7658 7.38592 22.3803 7.34548 22.0023 7.26509V10.3692C19.9604 10.3692 18.07 9.71772 16.5262 8.61063V16.6581C16.5262 20.6839 13.2743 23.9471 9.26309 23.9471C7.76641 23.9471 6.37531 23.4931 5.21973 22.7143C6.53864 24.0676 8.37796 24.9072 10.4128 24.9072C14.4243 24.9072 17.6764 21.6439 17.6764 17.618V9.57069H17.6762ZM19.0949 5.59222C18.3061 4.72745 17.7883 3.6099 17.6762 2.3744V1.86719H16.5864C16.8607 3.43751 17.7964 4.7791 19.0949 5.59222ZM7.75681 19.625C7.31614 19.0452 7.078 18.3358 7.07907 17.6065C7.07907 15.7652 8.56647 14.2723 10.4015 14.2723C10.7435 14.2723 11.0835 14.3248 11.4094 14.4286V10.397C11.0285 10.3446 10.6441 10.3224 10.2599 10.3305V13.4685C9.9337 13.3648 9.5936 13.312 9.25152 13.3124C7.41646 13.3124 5.92914 14.8051 5.92914 16.6466C5.92914 17.9486 6.6726 19.0759 7.75681 19.625Z" fill="#FF004F"/>
<path d="M16.5265 8.61055C18.0702 9.71764 19.9607 10.3691 22.0025 10.3691V7.26501C20.8628 7.02136 19.8538 6.42363 19.0951 5.59222C17.7966 4.77901 16.861 3.43743 16.5867 1.86719H13.7241V17.6178C13.7176 19.454 12.2327 20.9408 10.4016 20.9408C9.32257 20.9408 8.36394 20.4246 7.75682 19.625C6.67269 19.0759 5.92923 17.9485 5.92923 16.6467C5.92923 14.8053 7.41655 13.3124 9.25161 13.3124C9.6032 13.3124 9.94208 13.3674 10.26 13.4686V10.3306C6.31921 10.4123 3.1499 13.6437 3.1499 17.6179C3.1499 19.6018 3.93913 21.4003 5.22006 22.7144C6.37565 23.4931 7.76675 23.9472 9.26342 23.9472C13.2747 23.9472 16.5265 20.6838 16.5265 16.6581V8.61055H16.5265Z" fill="black"/>
<path d="M22.0025 7.26503V6.42571C20.9748 6.42728 19.9672 6.13842 19.0952 5.59216C19.8671 6.44029 20.8835 7.02509 22.0025 7.26503ZM16.5867 1.86721C16.5605 1.71714 16.5404 1.56608 16.5265 1.41444V0.907227H12.574V16.658C12.5677 18.494 11.0829 19.9808 9.25164 19.9808C8.714 19.9808 8.20638 19.8527 7.75685 19.6251C8.36397 20.4247 9.32259 20.9408 10.4016 20.9408C12.2326 20.9408 13.7177 19.4541 13.7241 17.6179V1.86721H16.5867ZM10.2601 10.3306V9.43712C9.92988 9.39182 9.59691 9.36908 9.26353 9.36925C5.25192 9.36917 2 12.6326 2 16.658C2 19.1818 3.27806 21.4059 5.22017 22.7142C3.93924 21.4002 3.15001 19.6017 3.15001 17.6179C3.15001 13.6437 6.31924 10.4123 10.2601 10.3306Z" fill="#00F2EA"/>
</svg>
