<svg width="134" height="52" viewBox="0 0 134 52" fill="none" xmlns="http://www.w3.org/2000/svg">
<g clip-path="url(#clip0_14_49270)">
<path d="M30.4502 29.3951L26.6167 31.6654C24.7974 29.9966 21.3077 28.8072 18.9008 28.4587L18.9008 51.7109L14.8925 51.7109L14.8925 28.4587C12.4295 28.9379 9.30155 30.0582 7.37698 31.6654L3.45258 29.3951C7.00753 25.7843 11.5534 23.8889 16.6962 23.8492C21.7406 23.8103 26.9109 25.7863 30.4502 29.3951Z" fill="black"/>
<path fill-rule="evenodd" clip-rule="evenodd" d="M7.42268 20.1197C9.41698 18.63 11.0762 16.7385 12.4004 14.4449C13.726 12.1522 14.5345 9.76945 14.826 7.29672C15.1175 4.82399 14.9576 2.39174 14.3461 -5.38325e-08L9.93782 2.45898C10.1513 3.69426 10.2031 4.92882 10.093 6.16266C9.98303 7.3965 9.69389 8.61958 9.22561 9.83192L3.31835 3.4518L0.863534 4.81456L0.863534 7.61993L6.81802 14.002C6.00225 15.0137 5.08759 15.8756 4.07406 16.5878C3.06053 17.3 2.04006 17.9093 0.863534 18.3421L0.863525 23.152C3.24197 22.4865 5.42838 21.6093 7.42268 20.1197Z" fill="#FF6DFB"/>
<path fill-rule="evenodd" clip-rule="evenodd" d="M27.1724 20.1197C25.1781 18.63 23.5188 16.7385 22.1946 14.4449C20.8691 12.1522 20.0605 9.76945 19.769 7.29672C19.4775 4.82399 19.6375 2.39174 20.249 -5.38325e-08L24.6572 2.45898C24.4437 3.69426 24.392 4.92882 24.502 6.16266C24.612 7.3965 24.9011 8.61958 25.3694 9.83192L31.2767 3.4518L33.7315 4.81456L33.7315 7.61993L27.777 14.002C28.5928 15.0137 29.5074 15.8756 30.521 16.5878C31.5345 17.3 32.555 17.9093 33.7315 18.3421L33.7315 23.152C31.3531 22.4865 29.1667 21.6093 27.1724 20.1197Z" fill="#FF6DFB"/>
<path d="M33.3241 35.583C34.9787 33.7745 37.249 32.7356 40.0195 32.7356V36.5066C37.1336 36.622 34.9403 38.3672 33.3241 40.4836V51.8069H29.3223L29.3223 32.0662H33.3241V35.583Z" fill="black"/>
<path d="M49.0686 32.7981C55.0714 32.7981 58.8039 37.3772 58.0343 43.4954H43.1508C43.5356 46.2274 45.9133 48.3999 49.2995 48.3999C51.0695 48.3999 53.1418 47.3498 53.8729 46.1954H57.781C56.6266 49.4661 53.2244 51.8069 49.2995 51.8069C43.6045 51.8069 39.7566 47.6896 39.7566 42.3025C39.7566 36.9539 43.5661 32.7981 49.0686 32.7981ZM49.1071 36.1843C46.1057 36.1843 43.9525 37.9784 43.1508 40.7249H55.0754C54.5744 37.8782 51.9161 36.1843 49.1071 36.1843Z" fill="black"/>
<path d="M70.0343 32.661C74.7288 32.661 77.9226 35.8933 77.9226 41.1265V51.8094H73.9207V41.3574C73.9207 38.0481 72.1507 36.2781 69.2262 36.2781C67.4946 36.2781 65.6092 37.2401 64.1854 39.0101V51.8094H60.1836V32.0686H64.1854V34.7389C65.7631 33.3921 67.7255 32.661 70.0343 32.661Z" fill="black"/>
<path d="M94.8374 23.9495H98.8008V51.807H94.8374V49.883C93.2982 51.1143 91.3357 51.807 89.027 51.807C83.9477 51.807 79.8689 47.5742 79.8689 42.2641C79.8689 37.0309 83.9477 32.7981 89.027 32.7981C91.3357 32.7981 93.2982 33.4908 94.8374 34.6836V23.9495ZM89.3461 48.5001C92.9595 48.3612 95.6592 45.8476 95.6592 42.2641C95.6592 38.747 92.922 36.0745 89.3461 36.0745C86.0369 36.0745 83.2335 39.0703 83.2335 42.2641C83.2335 45.4963 86.0369 48.5001 89.3461 48.5001Z" fill="black"/>
<path d="M103.403 28.8748C101.979 28.8748 100.863 27.8359 100.863 26.4121C100.863 24.9884 101.979 23.9495 103.403 23.9495C104.788 23.9495 105.942 24.9884 105.942 26.4121C105.942 27.8359 104.788 28.8748 103.403 28.8748ZM101.475 32.0662H105.438V51.807H101.475V32.0662Z" fill="black"/>
<path d="M121.537 47.4299L122.114 51.0855C120.536 51.6627 119.228 51.8166 117.996 51.8166C113.379 51.8166 110.916 49.0461 110.916 44.3901V35.4139H105.438V32.0662H110.916V23.9495H114.918V32.0662H120.201V35.4139H114.918V44.3901C114.918 47.0067 116.226 48.1226 118.458 48.1226C119.536 48.1226 120.613 47.8147 121.537 47.4299Z" fill="black"/>
<path d="M123.854 14.6301C125.327 14.807 126.591 14.8954 127.647 14.8954C129.849 14.8954 131.679 14.8291 133.137 14.6965C133.062 14.8733 132.951 15.1165 132.802 15.4261C132.653 15.7356 132.281 16.3252 131.686 17.1949C131.091 18.0498 130.422 18.8531 129.678 19.6048C130.213 19.6048 130.712 19.7596 131.173 20.0691C131.381 20.2018 131.567 20.4155 131.731 20.7103C131.894 20.9903 131.976 21.3662 131.976 21.8379C131.976 22.2948 131.865 22.7739 131.642 23.275C131.433 23.7614 131.084 24.2552 130.593 24.7564C129.581 25.8176 127.766 26.5841 125.148 27.0558C124.598 26.6283 124.07 26.0461 123.564 25.3091C123.058 24.5869 122.694 23.9678 122.471 23.4519L122.114 22.6559C123.527 23.0097 124.754 23.1866 125.795 23.1866C127.03 23.1866 127.856 22.995 128.272 22.6117C128.466 22.4348 128.562 22.2432 128.562 22.0369C128.562 21.6684 128.272 21.4178 127.692 21.2851C127.32 21.2114 126.963 21.1746 126.621 21.1746L125.595 21.2409C125.357 21.2409 125.193 21.2041 125.104 21.1304L128.161 18.2782C127.209 18.2782 126.286 18.3593 125.394 18.5214C124.501 18.6836 123.847 18.8457 123.43 19.0078L122.805 19.2511C123.505 17.556 123.854 16.0157 123.854 14.6301Z" fill="black"/>
</g>
<defs>
<clipPath id="clip0_14_49270">
<rect width="132.273" height="51.9071" fill="white" transform="translate(0.863525)"/>
</clipPath>
</defs>
</svg>
